<?xml version="1.0" encoding="UTF-8"?>
<svg width="12px" height="12px" viewBox="0 0 12 12" version="1.1" xmlns="http://www.w3.org/2000/svg" xmlns:xlink="http://www.w3.org/1999/xlink">
    <defs></defs>
    <g id="商城H5页面1.0" stroke="none" stroke-width="1" fill="none" fill-rule="evenodd">
        <g id="11-优惠券列表01" transform="translate(-339.000000, -242.000000)" fill="#5C5C5C" fill-rule="nonzero">
            <g id="Group" transform="translate(12.000000, 132.000000)">
                <path d="M333,110 C329.686125,110 327,112.6865 327,116 C327,119.313875 329.6865,122 333,122 C336.3135,122 339,119.313875 339,116 C339,112.6865 336.3135,110 333,110 Z M335.87325,115.603625 L333.373125,118.10375 C333.275625,118.20125 333.147375,118.25 333.0195,118.25 C333.01275,118.25 333.006375,118.246625 333,118.24625 C332.993625,118.24625 332.98725,118.25 332.9805,118.25 C332.852625,118.25 332.72475,118.20125 332.626875,118.103375 L330.12675,115.60325 C329.931375,115.407875 329.931375,115.091375 330.12675,114.896375 C330.322125,114.701375 330.638625,114.701 330.833625,114.896375 L333,117.062375 L335.166,114.896375 C335.361375,114.701 335.677875,114.701 335.872875,114.896375 C336.06825,115.09175 336.06825,115.40825 335.87325,115.603625 Z" id="icon-down"></path>
            </g>
        </g>
    </g>
</svg>
